HIERARCHY
ROOT Hips
{
	OFFSET 0.00000 0.00000 0.00000
	CHANNELS 6 Xposition Yposition Zposition Zrotation Yrotation Xrotation 
	JOINT LHipJoint
	{
		OFFSET 0 0 0
		CHANNELS 3 Zrotation Yrotation Xrotation
		JOINT LeftUpLeg
		{
			OFFSET 1.64549 -1.70879 0.84566
			CHANNELS 3 Zrotation Yrotation Xrotation
			JOINT LeftLeg
			{
				OFFSET 2.24963 -6.18082 0.00000
				CHANNELS 3 Zrotation Yrotation Xrotation
				JOINT LeftFoot
				{
					OFFSET 2.71775 -7.46697 0.00000
					CHANNELS 3 Zrotation Yrotation Xrotation
					JOINT LeftToeBase
					{
						OFFSET 0.18768 -0.51564 2.24737
						CHANNELS 3 Zrotation Yrotation Xrotation
						End Site
						{
							OFFSET 0.00000 -0.00000 1.15935
						}
					}
				}
			}
		}
	}
	JOINT RHipJoint
	{
		OFFSET 0 0 0
		CHANNELS 3 Zrotation Yrotation Xrotation
		JOINT RightUpLeg
		{
			OFFSET -1.58830 -1.70879 0.84566
			CHANNELS 3 Zrotation Yrotation Xrotation
			JOINT RightLeg
			{
				OFFSET -2.25006 -6.18201 0.00000
				CHANNELS 3 Zrotation Yrotation Xrotation
				JOINT RightFoot
				{
					OFFSET -2.72829 -7.49593 0.00000
					CHANNELS 3 Zrotation Yrotation Xrotation
					JOINT RightToeBase
					{
						OFFSET -0.21541 -0.59185 2.10643
						CHANNELS 3 Zrotation Yrotation Xrotation
						End Site
						{
							OFFSET -0.00000 -0.00000 1.09838
						}
					}
				}
			}
		}
	}
	JOINT LowerBack
	{
		OFFSET 0 0 0
		CHANNELS 3 Zrotation Yrotation Xrotation
		JOINT Spine
		{
			OFFSET 0.03142 2.10496 -0.11038
			CHANNELS 3 Zrotation Yrotation Xrotation
			JOINT Spine1
			{
				OFFSET -0.01863 2.10897 -0.06956
				CHANNELS 3 Zrotation Yrotation Xrotation
				JOINT Neck
				{
					OFFSET 0 0 0
					CHANNELS 3 Zrotation Yrotation Xrotation
					JOINT Neck1
					{
						OFFSET -0.02267 1.73238 0.00451
						CHANNELS 3 Zrotation Yrotation Xrotation
						JOINT Head
						{
							OFFSET -0.05808 1.54724 -0.61749
							CHANNELS 3 Zrotation Yrotation Xrotation
							End Site
							{
								OFFSET -0.01396 1.71468 -0.21082
							}
						}
					}
				}
				JOINT LeftShoulder
				{
					OFFSET 0 0 0
					CHANNELS 3 Zrotation Yrotation Xrotation
					JOINT LeftArm
					{
						OFFSET 3.44898 0.50298 0.21920
						CHANNELS 3 Zrotation Yrotation Xrotation
						JOINT LeftForeArm
						{
							OFFSET 5.41917 -0.00000 -0.00000
							CHANNELS 3 Zrotation Yrotation Xrotation
							JOINT LeftHand
							{
								OFFSET 2.44373 -0.00000 0.00000
								CHANNELS 3 Zrotation Yrotation Xrotation
								JOINT LeftFingerBase
								{
									OFFSET 0 0 0
									CHANNELS 3 Zrotation Yrotation Xrotation
									JOINT LeftHandIndex1
									{
										OFFSET 0.72750 -0.00000 0.00000
										CHANNELS 3 Zrotation Yrotation Xrotation
										End Site
										{
											OFFSET 0.58653 -0.00000 0.00000
										}
									}
								}
								JOINT LThumb
								{
									OFFSET 0 0 0
									CHANNELS 3 Zrotation Yrotation Xrotation
									End Site
									{
										OFFSET 0.59549 -0.00000 0.59549
									}
								}
							}
						}
					}
				}
				JOINT RightShoulder
				{
					OFFSET 0 0 0
					CHANNELS 3 Zrotation Yrotation Xrotation
					JOINT RightArm
					{
						OFFSET -3.23015 0.55830 0.31051
						CHANNELS 3 Zrotation Yrotation Xrotation
						JOINT RightForeArm
						{
							OFFSET -5.58976 -0.00010 0.00014
							CHANNELS 3 Zrotation Yrotation Xrotation
							JOINT RightHand
							{
								OFFSET -2.48060 -0.00000 0.00000
								CHANNELS 3 Zrotation Yrotation Xrotation
								JOINT RightFingerBase
								{
									OFFSET 0 0 0
									CHANNELS 3 Zrotation Yrotation Xrotation
									JOINT RightHandIndex1
									{
										OFFSET -0.81601 -0.00000 0.00000
										CHANNELS 3 Zrotation Yrotation Xrotation
										End Site
										{
											OFFSET -0.65789 -0.00000 0.00000
										}
									}
								}
								JOINT RThumb
								{
									OFFSET 0 0 0
									CHANNELS 3 Zrotation Yrotation Xrotation
									End Site
									{
										OFFSET -0.66793 -0.00000 0.66793
									}
								}
							}
						}
					}
				}
			}
		}
	}
}
MOTION
Frames: 15
Frame Time: 0.0188679
0.00 0.00 0.00 0 0 0 0 0 0 -21 0 0 0 0 0 0 0 0 0 0 0 0 0 0 21 0 0 0 0 0 0 0 0 0 0 0 0 0 0 0 0 0 0 0 0 0 0 -16 0 0 21 0 0 11 0 0 0 -8 0 0 0 0 0 0 0 0 0 0 0 0 0 0 0 0 0 0 0 0 8 0 0 0 0 0 0 0 0 0 0 0 0 0 0 0 0 0
0.00 0.00 0.00 -172.7550 -53.6004 -159.6430 0.0000 0.0000 0.0000 -24.1443 -9.8566 -38.0298 2.7674 10.3086 29.9818 4.7260 14.2525 -47.3315 1.3442 7.3403 20.7274 0.0000 0.0000 0.0000 32.3946 -0.1859 -15.5296 -3.6153 -11.6301 34.4358 -1.7938 -32.7029 31.4474 -1.6102 -8.0021 22.7203 -1.1562 3.2766 -17.4036 0.1660 3.2880 -11.1967 1.3310 1.2078 -2.3283 -7.5249 -6.9431 -12.4716 7.5500 -11.2903 26.4784 2.3771 -5.3634 11.5488 -0.0000 -0.0000 0.0000 -82.8097 22.0788 12.9685 15.0851 -24.2645 -3.2608 -0.0000 0.0000 -20.7713 5.2032 23.1724 2.0522 -7.1250 0.0000 -0.0000 -24.0791 51.5991 -4.1132 -0.0000 -0.0000 0.0000 83.9755 -20.1736 7.3391 -6.6220 11.2954 -0.6556 0.0000 -0.0000 -3.6486 -24.7792 16.4289 -7.4384 7.1250 -0.0000 -0.0000 1.9972 -11.9962 1.5395
0.00 0.00 0.00 -172.4580 -53.3206 -159.7360 0.0000 0.0000 0.0000 -23.9425 -10.5969 -38.1471 2.7848 10.3383 30.0792 4.8696 14.6880 -48.1205 1.3767 7.4251 20.9810 0.0000 0.0000 0.0000 32.1542 -0.8862 -16.5058 -3.7685 -11.8459 35.1888 -2.0867 -31.2426 31.9903 -1.7146 -8.2445 23.4592 -0.4127 2.1293 -17.3098 0.4643 1.6930 -10.8937 0.9932 0.3804 -1.9776 -15.1513 -14.5205 -2.8992 12.4821 -22.7244 20.0791 3.9364 -11.2474 10.0283 0.0000 -0.0000 0.0000 -83.1314 31.3299 35.6155 20.7700 -31.5589 -5.9291 -0.0000 0.0000 -36.2493 2.7112 31.1530 1.4033 -7.1250 0.0000 -0.0000 -32.0922 58.1388 -11.0529 0.0000 -0.0000 0.0000 82.1583 -27.0765 37.7728 -13.0067 21.2970 -2.4557 0.0000 -0.0000 -37.3535 -15.1522 0.9950 -0.2694 7.1250 -0.0000 -0.0000 8.8816 -28.8997 3.5218
0.00 0.00 0.00 -171.8540 -46.1906 -162.6010 0.0000 0.0000 0.0000 -24.3298 -5.3761 -39.2375 2.7891 10.3455 30.1029 5.8667 12.3911 -50.6607 2.2326 9.3347 26.8481 0.0000 0.0000 0.0000 32.7225 0.1411 -16.2887 -4.4889 -12.7841 38.5655 1.8007 -38.4923 19.4395 -3.1113 -10.8731 31.8530 0.0184 1.1775 -15.1883 2.3892 0.7699 -7.5296 2.6038 0.1104 0.5137 -0.7802 -2.2853 -14.0332 6.0926 -9.0184 38.2992 0.8999 -4.0470 16.5164 -0.0000 -0.0000 0.0000 -92.5441 10.4072 6.3310 17.1202 -27.0160 -4.1418 -0.0000 -0.0000 1.2085 -3.1054 21.0890 -1.1183 -7.1250 0.0000 -0.0000 -30.4442 48.4761 -2.8573 -0.0000 -0.0000 0.0000 84.5212 -7.6362 8.2368 -9.4310 15.8447 -1.3153 0.0000 0.0000 0.0084 7.0250 7.1148 0.8744 7.1250 -0.0000 -0.0000 24.1645 -22.8263 14.1684
0.00 0.00 0.00 -171.9430 -37.6585 -161.4100 0.0000 0.0000 0.0000 -20.5028 -7.4310 -34.1388 2.3241 9.5109 27.4070 3.6192 19.4492 -46.3091 0.4388 4.2504 11.7821 0.0000 0.0000 0.0000 30.3657 5.6667 -6.9293 -2.3077 -9.4795 27.3072 0.5507 -37.9871 24.7261 -2.8438 -10.4378 30.4065 1.5858 2.1390 -14.1849 1.9122 1.9142 -6.8333 1.3736 0.6587 0.7399 -0.6249 -0.4556 -14.5741 5.3656 -5.9030 38.3365 1.1120 -2.8185 16.4293 -0.0000 0.0000 0.0000 -78.6584 8.3534 -4.1101 10.4002 -17.3631 -1.5923 -0.0000 -0.0000 21.9738 -7.9899 17.4368 -2.4084 -7.1250 0.0000 -0.0000 -32.6646 44.6852 0.2858 -0.0000 0.0000 0.0000 75.6272 -9.2771 -43.4439 -4.6550 8.0014 -0.3257 0.0000 0.0000 53.8885 12.8447 7.4822 1.7007 7.1250 -0.0000 -0.0000 27.8673 -22.2722 17.3377
0.00 0.00 0.00 -170.0490 -31.2580 -161.3070 0.0000 0.0000 0.0000 -17.6848 -9.8715 -32.7116 2.3421 9.5449 27.5152 7.8316 15.5510 -58.5722 1.4106 7.5121 21.2417 0.0000 0.0000 0.0000 30.2468 7.4294 -4.2218 -1.9579 -8.7778 25.1028 1.3095 -38.1544 21.4369 -4.0153 -12.1807 36.3742 3.7070 3.3006 -13.2598 1.7989 3.1944 -6.9508 0.2131 1.2197 0.2283 -0.1390 -0.3427 -13.9813 4.4724 -5.7337 38.4464 0.6559 -2.8733 16.2710 0.0000 -0.0000 0.0000 -71.7539 5.3657 -20.9348 7.3926 -12.5636 -0.8149 -0.0000 -0.0000 48.7889 -11.8279 18.4666 -3.7951 -7.1250 0.0000 -0.0000 -36.3259 45.0709 -0.0737 0.0000 -0.0000 0.0000 68.8279 -5.4517 -76.0829 -4.3180 7.4300 -0.2805 0.0000 0.0000 88.4401 8.9858 9.7808 1.5388 7.1250 -0.0000 -0.0000 24.9670 -20.3284 16.3432
0.00 0.00 0.00 -171.0280 -19.4107 -158.2220 0.0000 0.0000 0.0000 -18.7898 -6.0006 -32.6822 2.5621 9.9499 28.8147 11.3204 10.8975 -67.3424 1.7458 8.3152 23.6756 0.0000 0.0000 0.0000 26.6769 9.4291 -10.1002 -3.5807 -11.5805 34.2635 2.7233 -34.3890 9.1728 -2.8147 -10.3889 30.2455 1.1321 2.2295 -10.6331 2.0502 2.1010 -7.3747 1.6853 0.7195 -1.7595 -1.6313 0.8179 -15.1248 4.1124 -4.1039 39.9785 0.9921 -2.6486 17.3261 -0.0000 0.0000 0.0000 -51.0102 -1.0673 -19.7848 9.1018 -15.3225 -1.2269 -0.0000 -0.0000 41.8692 14.8764 21.5460 5.5719 -7.1250 0.0000 -0.0000 -14.0620 51.6603 -2.3452 -0.0000 0.0000 0.0000 47.8450 1.4268 -100.9731 -5.6194 9.6259 -0.4735 0.0000 0.0000 82.0775 -23.8214 18.9553 -8.1613 7.1250 -0.0000 -0.0000 2.8429 -9.4221 2.3421
0.00 0.00 0.00 -171.5850 -16.4176 -157.9070 0.0000 0.0000 0.0000 -18.9519 -6.5362 -32.5296 2.8909 10.5163 30.6652 12.9161 7.1638 -71.0885 2.2313 9.3322 26.8400 0.0000 0.0000 0.0000 25.1848 9.3422 -20.1432 -6.2796 -14.6939 46.0938 2.5191 -26.9011 -7.4183 -1.5124 -7.7666 22.0073 -0.5602 1.9035 -8.6121 1.7701 1.9286 -7.0825 2.2756 0.7419 -2.6061 -0.2621 1.0297 -14.8581 3.6597 -3.7665 38.7359 0.6179 -2.3215 16.5289 -0.0000 -0.0000 0.0000 -48.5846 -4.2036 -17.5158 9.3210 -15.6705 -1.2854 -0.0000 -0.0000 37.7178 26.2043 21.3357 10.1518 -7.1250 0.0000 -0.0000 -2.6149 53.4866 -0.5460 -0.0000 -0.0000 0.0000 47.5900 2.9762 -99.1255 -5.8085 9.9424 -0.5057 0.0000 0.0000 71.2378 -33.4637 23.9928 -15.0437 7.1250 -0.0000 -0.0000 -2.5167 -1.9229 -2.4332
0.00 0.00 0.00 -170.9520 -14.8748 -157.9570 0.0000 0.0000 0.0000 -17.7763 -5.8658 -33.2071 3.4001 11.3162 33.3537 13.5350 4.8022 -72.4704 2.3803 9.6169 27.7449 0.0000 0.0000 0.0000 25.0338 11.1923 -34.6131 -7.1940 -15.4931 49.6041 0.3729 -16.9560 -20.1874 -0.6799 -5.2722 14.6865 -0.2569 0.8642 -4.9120 2.0435 0.6640 -6.9576 2.2851 0.1564 -4.4729 0.5932 1.5917 -14.8173 3.0849 -2.3979 36.6987 0.4855 -1.6067 15.4117 0.0000 -0.0000 0.0000 -50.2233 -8.2065 -14.2561 8.0347 -13.6090 -0.9603 -0.0000 -0.0000 42.2767 29.6965 21.5697 11.8413 -7.1250 0.0000 -0.0000 1.0196 54.4465 0.2367 0.0000 -0.0000 0.0000 51.6012 5.5165 -112.4349 -5.8179 9.9581 -0.5073 0.0000 0.0000 80.0968 -38.6242 24.0141 -18.0122 7.1250 -0.0000 -0.0000 -5.5886 -0.4095 -5.5752
0.00 0.00 0.00 -171.3850 -14.1283 -158.0650 0.0000 0.0000 0.0000 -18.7342 -2.8563 -29.4334 2.7672 10.3083 29.9810 13.0069 7.0545 -71.3256 2.0278 8.9238 25.5573 0.0000 0.0000 0.0000 19.9523 19.6501 -42.4369 -3.1569 -10.9448 32.0939 -0.3670 -12.3177 -21.6458 -0.2491 -3.2115 8.8681 -0.4791 -0.6554 -1.8420 2.8347 -1.1773 -6.0441 3.2575 -0.6645 -5.1520 0.2302 2.3052 -16.8935 1.4601 0.4186 33.7681 0.4187 -0.3988 14.4362 0.0000 -0.0000 0.0000 -61.5943 -12.0610 -18.7553 5.9889 -10.2436 -0.5373 -0.0000 -0.0000 61.2919 28.3939 20.9001 10.9149 -7.1250 0.0000 -0.0000 -0.2180 53.4445 -0.0453 0.0000 -0.0000 0.0000 60.8362 8.5099 -130.3049 -6.0307 10.3133 -0.5447 0.0000 0.0000 100.3190 -37.8526 22.6806 -16.6816 7.1250 -0.0000 -0.0000 -5.4031 -2.1968 -5.2156
0.00 0.00 0.00 -172.5580 -15.2739 -157.9110 0.0000 0.0000 0.0000 -20.1155 -0.5595 -25.4825 1.9513 8.7638 25.0592 12.1318 9.7153 -69.3646 1.7083 8.2300 23.4148 0.0000 0.0000 0.0000 13.1683 24.5497 -45.3236 -1.4809 -7.6889 21.7729 1.1354 -20.4586 -17.2397 -0.3442 -3.7696 10.4295 -0.7072 -1.7587 -0.4158 2.8507 -2.6355 -6.2962 3.5124 -1.3572 -6.1393 -0.1290 2.5570 -18.6527 1.2951 1.1726 33.6886 0.5697 -0.0848 14.7864 -0.0000 -0.0000 0.0000 -70.3391 -12.6276 -25.7739 5.1456 -8.8299 -0.3975 -0.0000 -0.0000 76.4228 27.6610 21.1959 10.7308 -7.1250 0.0000 -0.0000 -1.0565 53.6220 -0.2240 -0.0000 -0.0000 0.0000 69.5837 7.0096 -103.7927 -4.8905 8.3996 -0.3593 0.0000 0.0000 78.3197 -34.4092 17.2270 -11.4670 7.1250 -0.0000 -0.0000 -4.2198 -9.4270 -3.4814
0.00 0.00 0.00 -173.9080 -16.3060 -158.0420 0.0000 0.0000 0.0000 -21.4583 1.3235 -22.4338 1.4447 7.5983 21.5006 10.8126 13.2736 -66.5191 1.1940 6.9336 19.5187 0.0000 0.0000 0.0000 6.4464 28.5129 -46.4373 -1.1031 -6.6735 18.7517 0.9036 -22.9297 -25.5396 -2.3690 -9.5958 27.6775 -1.5060 -2.5460 0.0891 2.8208 -3.6803 -6.1149 3.9926 -1.8185 -6.1259 0.2817 2.6700 -19.4440 0.4744 1.7150 33.0029 0.2780 0.1548 14.6623 -0.0000 0.0000 0.0000 -75.2517 -13.2547 -16.9855 4.5142 -7.7628 -0.3064 -0.0000 -0.0000 71.0479 26.6942 23.1392 11.1772 -7.1250 0.0000 -0.0000 -2.6135 55.5238 -0.6754 -0.0000 0.0000 0.0000 74.1092 5.6032 -70.1388 -3.9502 6.8043 -0.2349 0.0000 0.0000 47.7571 -33.0991 12.9619 -8.3186 7.1250 -0.0000 -0.0000 -3.9409 -14.6422 -2.8235
0.00 0.00 0.00 -175.2180 -17.9749 -157.9840 0.0000 0.0000 0.0000 -22.2556 2.0194 -19.4414 1.0886 6.6308 18.6261 9.7490 16.0133 -64.3664 0.8611 5.9173 16.5446 0.0000 0.0000 0.0000 -1.4012 32.6320 -48.1146 -0.9421 -6.1821 17.3138 -1.6341 -19.9047 -37.9935 -4.7428 -13.0882 39.6994 -1.7208 -3.2827 -0.0801 2.5935 -4.6753 -6.1104 3.9033 -2.3081 -5.9496 0.6671 2.6144 -19.7915 0.0294 1.7674 32.5712 0.0495 0.2016 14.5565 0.0000 -0.0000 0.0000 -80.1856 -13.6682 -7.3084 3.9300 -6.7700 -0.2325 -0.0000 -0.0000 66.6443 24.6241 24.4965 10.7605 -7.1250 0.0000 -0.0000 -5.3062 56.5228 -1.5019 0.0000 -0.0000 0.0000 78.6368 2.7946 -37.2854 -4.8117 8.2665 -0.3479 0.0000 0.0000 17.5056 -30.5550 7.5688 -4.4462 7.1250 -0.0000 -0.0000 -2.7066 -21.2123 -1.5456
0.00 0.00 0.00 -176.6340 -19.1361 -157.6780 0.0000 0.0000 0.0000 -23.0024 2.2016 -17.2594 1.0293 6.4534 18.1057 9.4636 17.2269 -63.9859 0.5420 4.7167 13.1022 0.0000 0.0000 0.0000 -0.4483 27.2482 -50.4065 -0.8736 -5.9590 16.6655 0.8418 -25.6655 -30.8960 -2.9548 -10.6214 31.0136 -2.0376 -3.7726 -0.2819 2.5173 -5.3478 -6.1929 4.0124 -2.6322 -5.8514 0.2462 2.3484 -20.6933 -0.1798 1.8538 31.6849 0.0789 0.2415 14.3545 0.0000 0.0000 0.0000 -86.3920 -13.4826 5.5457 4.0593 -6.9901 -0.2480 -0.0000 -0.0000 62.8347 19.8380 23.7924 8.2809 -7.1250 0.0000 -0.0000 -10.0581 54.8107 -2.4421 0.0000 0.0000 0.0000 82.5077 -1.3023 -0.0694 -8.4709 14.3133 -1.0655 0.0000 -0.0000 -17.3241 -25.6232 3.2667 -1.5655 7.1250 -0.0000 -0.0000 0.7518 -26.3575 0.3399
0.00 0.00 0.00 -177.2720 -20.2136 -157.8320 0.0000 0.0000 0.0000 -22.7240 2.2568 -15.8495 1.1227 6.7304 18.9191 8.7407 19.9787 -63.0362 0.0930 1.9665 5.4131 0.0000 0.0000 0.0000 3.6626 21.7995 -52.2583 -1.0671 -6.5671 18.4390 2.5899 -29.0083 -22.9005 -2.5270 -9.8868 28.6109 -2.1200 -4.2762 -0.5323 2.7577 -5.9804 -5.8508 4.2780 -2.9439 -5.2622 -0.0315 2.2596 -22.9237 -0.6031 2.2219 31.4893 0.0561 0.3731 14.7627 -0.0000 0.0000 0.0000 -90.1811 -13.8422 14.6256 4.6546 -8.0007 -0.3257 -0.0000 -0.0000 59.3634 14.8291 23.7703 6.0913 -7.1250 0.0000 -0.0000 -15.1128 53.8355 -3.3418 -0.0000 0.0000 0.0000 83.7233 -2.8607 14.8711 -11.6746 19.3148 -1.9933 0.0000 -0.0000 -29.0610 -21.5451 0.1991 -0.0786 7.1250 -0.0000 -0.0000 3.9472 -29.7545 1.4710
